<?xml version="1.0" encoding="utf-8"?>
<svg version="1.1" id="Layer_1" xmlns="http://www.w3.org/2000/svg" xmlns:xlink="http://www.w3.org/1999/xlink" x="0px" y="0px"
	 viewBox="0 0 299.8 191.6" style="enable-background:new 0 0 299.8 191.6;" xml:space="preserve">
<style type="text/css">
	.st0{clip-path:url(#SVGID_2_);fill:url(#SVGID_3_);}
	.st1{fill:#FFFFFF;}
	.st2{clip-path:url(#SVGID_5_);fill:#FFFFFF;}
</style>
<g id="CleanStay_x5F_Color_x5F_KO_x5F_DarkBlue_x5F_RGB_1_">
	<g>
		<defs>
			<rect id="SVGID_1_" y="186.6" width="299.8" height="5"/>
		</defs>
		<clipPath id="SVGID_2_">
			<use xlink:href="#SVGID_1_"  style="overflow:visible;"/>
		</clipPath>
		
			<linearGradient id="SVGID_3_" gradientUnits="userSpaceOnUse" x1="1.9933" y1="191.8907" x2="2.9933" y2="191.8907" gradientTransform="matrix(299.8238 0 0 -299.8238 -597.6476 57722.4961)">
			<stop  offset="0" style="stop-color:#FFFFFF"/>
			<stop  offset="0.8" style="stop-color:#0BA5DE"/>
			<stop  offset="1" style="stop-color:#0BA5DE"/>
		</linearGradient>
		<rect y="186.6" class="st0" width="299.8" height="5"/>
	</g>
	<path class="st1" d="M5.5,5.1h288.8v100.8H5.5V5.1z M0.4,111h299V0H0.4V111z"/>
	<polygon class="st1" points="80.4,29 80.4,81.9 84.6,82.5 84.6,85.6 64.1,85.6 64.1,82.5 68.5,81.9 68.5,57.8 42.2,57.8 42.2,81.9 
		46.3,82.5 46.3,85.6 26.1,85.6 26.1,82.5 30.2,81.9 30.2,29 26.1,28.5 26.1,25.5 46.3,25.5 46.3,28.5 42.2,29 42.2,51.6 68.5,51.6 
		68.5,29 64.1,28.5 64.1,25.5 84.6,25.5 84.6,28.5 	"/>
	<polygon class="st1" points="108.4,82.3 112.3,82.8 112.3,85.6 93.4,85.6 93.4,82.8 97.3,82.3 97.3,46.1 93.4,45.5 93.4,42.8 
		108.4,42.8 	"/>
	<polygon class="st1" points="120.5,82.9 124.3,82.4 124.3,28.7 120.5,28.1 120.5,25.5 135.5,25.5 135.5,82.4 139.4,82.9 
		139.4,85.6 120.5,85.6 	"/>
	<g>
		<defs>
			<rect id="SVGID_4_" width="299.8" height="191.6"/>
		</defs>
		<clipPath id="SVGID_5_">
			<use xlink:href="#SVGID_4_"  style="overflow:visible;"/>
		</clipPath>
		<path class="st2" d="M162.3,42.8h10.1v4h-10.1v25.4c0,6.6,1.4,8.7,7.4,8.7c2.2,0,4.2,0,6-0.5v2.9c-5.4,1.9-10,2.7-13.9,2.7
			c-8.7,0-10.7-3.9-10.7-11.4V46.8h-7.9v-4h8.2v-8.9l11-3.3V42.8"/>
		<path class="st2" d="M223.2,64.6c0,13.3-9,22.3-23.2,22.3c-13.7,0-22.5-5.8-22.5-22.3c0-13.8,9-23,23.2-23
			C214.7,41.6,223.2,49.9,223.2,64.6 M210.8,64.3c0-13.5-4-19.4-10.6-19.4c-6.3,0-10.4,5.7-10.4,19.4c0,13.6,4.1,19.2,10.4,19.2
			C207.1,83.6,210.8,78.2,210.8,64.3"/>
		<path class="st2" d="M274.4,82.8v2.7h-18.9v-2.7l3.8-0.5V57.9c0-6.7-2.5-9.8-7.6-9.8c-2.4,0-6.2,1.6-8.9,3.6v30.6l3.9,0.5v2.7h-19
			v-2.7l3.9-0.5V46.4l-3.9-0.5v-3h15.1v5.9c4.7-3.7,9.2-6.8,15.6-6.8c8.5,0,12.2,4.9,12.2,14.6v25.7L274.4,82.8"/>
		<path class="st2" d="M109,31.5c0,3.3-2.7,6-6.1,6c-3.4,0-6.1-2.7-6.1-6c0-3.3,2.7-6,6.1-6C106.3,25.5,109,28.2,109,31.5"/>
		<path class="st2" d="M294.7,118.6h0.9c0.6,0,0.8-0.2,0.8-0.6c0-0.4-0.2-0.6-0.8-0.6h-0.9V118.6 M297.2,118c0,0.6-0.2,0.9-0.8,1.1
			l0.9,1.4h-0.8l-0.8-1.3c-0.1,0-0.1,0-0.2,0h-0.7v1.2H294v-3.7h1.6C296.7,116.8,297.2,117.2,297.2,118 M292.5,118.7
			c0,1.7,1.4,3,3,3c1.7,0,3-1.4,3-3c0-1.7-1.4-3-3-3C293.9,115.6,292.5,117,292.5,118.7 M299.4,118.7c0,2.1-1.7,3.9-3.9,3.9
			c-2.1,0-3.9-1.7-3.9-3.9c0-2.1,1.7-3.9,3.9-3.9C297.7,114.8,299.4,116.5,299.4,118.7"/>
		<path class="st2" d="M63.4,134.5l-6.1,3.4c-2.3-2.8-5.7-4.6-9.7-4.6c-7.2,0-12.6,5.8-12.6,12.9c0,7.1,5.4,12.9,12.6,12.9
			c4,0,7.4-1.8,9.7-4.6l6.1,3.4c-3.6,4.7-9.4,7.8-15.9,7.8c-11,0-19.9-8.7-19.9-19.5c0-10.8,8.9-19.5,19.9-19.5
			C54,126.7,59.7,129.8,63.4,134.5"/>
		<rect x="66.2" y="127.2" class="st2" width="6.6" height="37.9"/>
		<path class="st2" d="M103.2,151.6v1.8H81.5c0.2,4.4,4,7.5,8.5,7.5c2.8,0,5.6-1,7.6-2.9l3.4,3.1c-3,2.9-7,4.7-11.6,4.7
			c-7.9,0-14.3-6.3-14.3-14.1c0-7.8,6.3-14.1,14-14.1C97.9,137.5,103.2,143.8,103.2,151.6 M81.5,150.2H97c0-4.4-2.9-8-7.7-8
			C85,142.2,81.5,145.8,81.5,150.2"/>
		<path class="st2" d="M130.5,147.6v17.5h-6.6v-3.3c-2.9,2.5-6.4,3.8-10.6,3.8c-5.3,0-9.1-3.4-9.1-8.6c0-5.1,4-7.9,10.2-8h9.5v-0.9
			c0-3.9-2.7-5.6-6.6-5.6c-3,0.1-6.2,1-8.9,2.9l-2-4.2c3.7-2.3,8.2-3.7,12.6-3.7C125.4,137.5,130.5,140.4,130.5,147.6 M110.7,156.5
			c0,3.1,2.3,5.2,5.5,5.2c3,0,5.6-0.8,7.7-2.3v-7.6h-7C113,151.8,110.7,153.3,110.7,156.5"/>
		<path class="st2" d="M161.5,147.1v18h-6.6v-16.1c0-4-2.3-6.2-5.7-6.2c-3.3,0-6.3,1.1-8.7,3.3v19h-6.6v-27.1h6.6v3.6
			c3.3-2.7,7.3-4.1,11.3-4.1C157.3,137.5,161.5,140.7,161.5,147.1"/>
		<path class="st2" d="M195.6,130.8l-3,5.4c-4.1-2.2-9.2-3.6-13.3-3.6c-3.5,0.1-6.5,1.4-6.5,4.7c0,2.1,1.2,3.1,8.2,4.9
			c9.3,2.5,15.5,4.2,15.5,12c0,7.5-6.4,11.5-15.3,11.5c-6.5,0-12.9-1.8-17.7-5l3.2-5.3c4.6,2.8,10.2,4.2,15.3,4.2
			c3.7,0,7.1-1.4,7.1-4.6c0-3.9-2.5-4.3-10.1-6.2c-8.8-2.2-13.8-4.3-13.8-10.7c0-8,6.7-11.5,14.9-11.5
			C185.7,126.7,191.4,128.2,195.6,130.8"/>
		<path class="st2" d="M207.5,138.1h7.8v5h-7.8v12.1c0,3.3,2.3,5.1,5.1,5.1c1.2,0,2.6-0.4,3.7-1l0.9,4.5c-2.3,1.2-4.8,1.8-7.2,1.9
			c-5,0.1-9.2-3.2-9.2-9.4v-13.2h-4.3v-5h4.3v-7.5h6.6V138.1z"/>
		<path class="st2" d="M243.5,147.6v17.5h-6.6v-3.3c-2.9,2.5-6.4,3.8-10.6,3.8c-5.3,0-9.1-3.4-9.1-8.6c0-5.1,4-7.9,10.2-8h9.5v-0.9
			c0-3.9-2.7-5.6-6.6-5.6c-3,0.1-6.2,1-8.9,2.9l-2-4.2c3.7-2.3,8.2-3.7,12.6-3.7C238.5,137.5,243.5,140.4,243.5,147.6 M223.7,156.5
			c0,3.1,2.3,5.2,5.5,5.2c3,0,5.6-0.8,7.7-2.3v-7.6h-7C226,151.8,223.7,153.3,223.7,156.5"/>
		<path class="st2" d="M261.3,167.8c-2.7,6.6-6.4,8.5-10.7,8.5c-2.5,0.1-5-0.7-7.2-1.5l1.8-4.3c1.7,0.7,3.3,1,4.7,0.9
			c2.1-0.1,3.9-1.1,5.5-4.4l0.4-0.9l-12-27.9h6.9l8,19.7l7.6-19.7h6.9L261.3,167.8z"/>
	</g>
</g>
</svg>
